<svg xmlns="http://www.w3.org/2000/svg" xmlns:xlink="http://www.w3.org/1999/xlink" version="1.1" width="256" height="256" viewBox="0 0 256 256" xml:space="preserve">

<defs>
</defs>
<g style="stroke: none; stroke-width: 0; stroke-dasharray: none; stroke-linecap: butt; stroke-linejoin: miter; stroke-miterlimit: 10; fill: none; fill-rule: nonzero; opacity: 1;" transform="translate(1.4065934065934016 1.4065934065934016) scale(2.81 2.81)" >
	<path d="M 58.684 48.393 h -9.6 c -1.104 0 -2 -0.896 -2 -2 v -7.214 c 0 -1.104 0.896 -2 2 -2 h 9.6 c 1.104 0 2 0.896 2 2 v 7.214 C 60.684 47.498 59.788 48.393 58.684 48.393 z M 51.084 44.393 h 5.6 v -3.214 h -5.6 V 44.393 z" style="stroke: none; stroke-width: 1; stroke-dasharray: none; stroke-linecap: butt; stroke-linejoin: miter; stroke-miterlimit: 10; fill: rgb(0,0,0); fill-rule: nonzero; opacity: 1;" transform=" matrix(1 0 0 1 0 0) " stroke-linecap="round" />
	<path d="M 39.148 48.393 h -9.599 c -1.104 0 -2 -0.896 -2 -2 v -7.214 c 0 -1.104 0.896 -2 2 -2 h 9.599 c 1.104 0 2 0.896 2 2 v 7.214 C 41.148 47.498 40.252 48.393 39.148 48.393 z M 31.549 44.393 h 5.599 v -3.214 h -5.599 V 44.393 z" style="stroke: none; stroke-width: 1; stroke-dasharray: none; stroke-linecap: butt; stroke-linejoin: miter; stroke-miterlimit: 10; fill: rgb(0,0,0); fill-rule: nonzero; opacity: 1;" transform=" matrix(1 0 0 1 0 0) " stroke-linecap="round" />
	<path d="M 68.751 20.437 c -0.6 -0.357 -1.338 -0.373 -1.951 -0.051 L 65.69 6.181 c -0.082 -1.041 -0.95 -1.844 -1.994 -1.844 H 57.53 c -1.044 0 -1.912 0.803 -1.994 1.844 l -1.403 17.951 v -1.978 c 0 -0.705 -0.371 -1.357 -0.976 -1.718 c -0.606 -0.362 -1.357 -0.376 -1.976 -0.042 l -12.644 6.837 v -5.078 c 0 -0.705 -0.371 -1.357 -0.976 -1.718 c -0.604 -0.361 -1.355 -0.377 -1.975 -0.042 l -15.595 8.434 c -0.646 0.35 -1.049 1.025 -1.049 1.759 v 22.529 H 16 c -1.104 0 -2 0.896 -2 2 s 0.896 2 2 2 h 34.336 c 1.104 0 2 -0.896 2 -2 s -0.896 -2 -2 -2 H 22.942 V 31.78 l 11.595 -6.27 v 5.078 c 0 0.705 0.371 1.357 0.976 1.718 c 0.606 0.362 1.357 0.376 1.975 0.042 l 12.644 -6.837 v 5.078 c 0 0.705 0.371 1.357 0.976 1.718 c 0.606 0.362 1.356 0.376 1.976 0.042 l 12.644 -6.837 v 19.108 c 0 1.104 0.896 2 2 2 s 2 -0.896 2 -2 V 22.155 C 69.727 21.45 69.356 20.797 68.751 20.437 z M 58.832 15.336 h 3.561 l 0.557 7.128 l -4.881 2.64 L 58.832 15.336 z M 61.846 8.337 l 0.234 2.999 h -2.935 l 0.234 -2.999 H 61.846 z" style="stroke: none; stroke-width: 1; stroke-dasharray: none; stroke-linecap: butt; stroke-linejoin: miter; stroke-miterlimit: 10; fill: rgb(0,0,0); fill-rule: nonzero; opacity: 1;" transform=" matrix(1 0 0 1 0 0) " stroke-linecap="round" />
	<path d="M 90 45.133 c 0 -0.065 -0.011 -0.129 -0.017 -0.193 c -0.006 -0.065 -0.007 -0.131 -0.02 -0.196 c -0.014 -0.073 -0.04 -0.143 -0.062 -0.213 c -0.017 -0.054 -0.028 -0.109 -0.049 -0.161 c -0.047 -0.116 -0.106 -0.227 -0.174 -0.332 c -0.003 -0.005 -0.005 -0.011 -0.009 -0.017 c -0.001 -0.002 -0.003 -0.003 -0.004 -0.005 c -0.072 -0.108 -0.154 -0.208 -0.246 -0.301 c -0.035 -0.035 -0.076 -0.063 -0.113 -0.095 c -0.061 -0.053 -0.121 -0.109 -0.189 -0.154 c -0.047 -0.031 -0.098 -0.053 -0.147 -0.081 c -0.065 -0.036 -0.127 -0.076 -0.197 -0.105 c -0.092 -0.039 -0.189 -0.065 -0.286 -0.089 c -0.03 -0.008 -0.057 -0.021 -0.087 -0.027 L 78.6 41.163 c -1.088 -0.225 -2.14 0.477 -2.36 1.56 c -0.221 1.082 0.478 2.139 1.56 2.359 l 5.07 1.035 L 51.86 66.611 l -16.631 -6.31 c -0.602 -0.229 -1.276 -0.153 -1.812 0.201 L 0.898 81.994 c -0.922 0.609 -1.175 1.851 -0.566 2.771 c 0.385 0.582 1.021 0.897 1.67 0.897 c 0.378 0 0.761 -0.107 1.101 -0.331 l 31.664 -20.927 l 16.632 6.31 c 0.6 0.227 1.275 0.152 1.812 -0.201 l 31.865 -21.059 l -1.036 5.07 c -0.221 1.083 0.478 2.139 1.56 2.36 c 0.136 0.027 0.27 0.04 0.402 0.04 c 0.931 0 1.765 -0.652 1.958 -1.6 l 2.001 -9.802 c 0.004 -0.021 0.003 -0.041 0.006 -0.062 C 89.985 45.353 89.999 45.244 90 45.133 z" style="stroke: none; stroke-width: 1; stroke-dasharray: none; stroke-linecap: butt; stroke-linejoin: miter; stroke-miterlimit: 10; fill: rgb(0,0,0); fill-rule: nonzero; opacity: 1;" transform=" matrix(1 0 0 1 0 0) " stroke-linecap="round" />
</g>
</svg>